<?xml version="1.0" encoding="UTF-8" standalone="no"?>
<svg
   data-name="Layer 1"
   width="633.60101"
   height="633.60101"
   viewBox="0 0 633.60099 633.60102"
   version="1.1"
   id="svg56"
   sodipodi:docname="add-verification.svg"
   inkscape:version="1.2.2 (b0a8486541, 2022-12-01)"
   xmlns:inkscape="http://www.inkscape.org/namespaces/inkscape"
   xmlns:sodipodi="http://sodipodi.sourceforge.net/DTD/sodipodi-0.dtd"
   xmlns="http://www.w3.org/2000/svg"
   xmlns:svg="http://www.w3.org/2000/svg">
  <defs
     id="defs60" />
  <sodipodi:namedview
     id="namedview58"
     pagecolor="#ffffff"
     bordercolor="#666666"
     borderopacity="1.0"
     inkscape:showpageshadow="2"
     inkscape:pageopacity="0.0"
     inkscape:pagecheckerboard="0"
     inkscape:deskcolor="#d1d1d1"
     showgrid="false"
     inkscape:zoom="0.7449481"
     inkscape:cx="-12.081379"
     inkscape:cy="146.99011"
     inkscape:window-width="1852"
     inkscape:window-height="1051"
     inkscape:window-x="0"
     inkscape:window-y="0"
     inkscape:window-maximized="1"
     inkscape:current-layer="svg56" />
  <g
     id="g286"
     transform="translate(45.19073,-7.8408203e-5)">
    <path
       d="M 525.66203,233.52853 H 17.09196 A 17.11177,17.11177 0 0 1 -4e-5,216.43653 V 17.09197 a 17.11177,17.11177 0 0 1 17.092,-17.092 h 508.57007 a 17.11177,17.11177 0 0 1 17.092,17.092 V 216.4366 a 17.11177,17.11177 0 0 1 -17.092,17.09193 z"
       fill="#f2f2f2"
       id="path2" />
    <path
       d="M 407.0521,222.6276 H 97.81967 a 87.01423,87.01423 0 0 1 -86.916,-86.916 V 97.82644 a 87.01476,87.01476 0 0 1 86.916,-86.91662 h 347.1176 a 87.01476,87.01476 0 0 1 86.916,86.91662 A 124.94266,124.94266 0 0 1 407.0521,222.6276 Z"
       fill="#ffffff"
       id="path4" />
    <path
       d="M 327.28267,67.9756 H 122.87628 a 4.40803,4.40803 0 1 1 0,-8.81606 h 204.40639 a 4.40803,4.40803 0 0 1 0,8.81606 z"
       fill="#e6e6e6"
       id="path6" />
    <path
       d="M 430.75675,115.00638 H 122.87628 a 4.40803,4.40803 0 1 1 0,-8.81606 h 307.88047 a 4.40803,4.40803 0 0 1 0,8.81606 z"
       fill="#e6e6e6"
       id="path8" />
    <path
       d="M 430.75675,162.03719 H 122.87628 a 4.40803,4.40803 0 1 1 0,-8.81606 h 307.88047 a 4.40803,4.40803 0 0 1 0,8.81606 z"
       fill="#e6e6e6"
       id="path10" />
    <path
       d="M 430.75675,162.03719 H 122.87628 a 4.40803,4.40803 0 1 1 0,-8.81606 h 307.88047 a 4.40803,4.40803 0 0 1 0,8.81606 z"
       fill="#e6e6e6"
       id="path12" />
    <path
       d="m 305.71258,120.4043 a 9.08847,9.08847 0 0 0 11.00741,8.54713 l 16.81052,27.57777 7.15453,-15.18214 -17.06037,-23.86076 a 9.13775,9.13775 0 0 0 -17.912,2.918 z"
       fill="#ffb6b6"
       id="path14" />
    <path
       d="M 431.86467,199.44053 373.93237,168.01689 355.65928,150.873 c 0,0 -7.94382,-2.1269 -5.02,-4.70983 2.92382,-2.58293 -5.40826,-5.074 -5.40826,-5.074 l -9.80947,-9.20329 -13.93898,9.86272 4.0341,6.25338 c 0,0 -0.27766,10.35216 5.39346,8.36056 5.67112,-1.9916 4.25394,6.59416 4.25394,6.59416 l 33.84976,52.47148 z"
       fill="#3f3d56"
       id="path16" />
    <circle
       cx="260.85489"
       cy="113.24865"
       r="56.585991"
       fill="#6c63ff"
       id="circle18"
       style="fill:#ec407a;fill-opacity:1" />
    <polygon
       points="432.044,611.601 420.278,611.601 414.679,566.219 432.044,566.219 "
       fill="#ffb6b6"
       id="polygon20" />
    <path
       d="m 438.25416,631.9866 h -8.43765 l -1.50609,-7.96615 -3.8573,7.96614 h -22.37867 a 5.03052,5.03052 0 0 1 -2.85851,-9.17017 l 17.87094,-12.34231 v -8.05351 l 18.79712,1.12193 z"
       fill="#2f2e41"
       id="path22" />
    <polygon
       points="337.942,611.601 326.176,611.601 320.577,566.219 337.942,566.219 "
       fill="#ffb6b6"
       id="polygon24" />
    <path
       d="m 344.15201,631.9866 h -8.43765 l -1.50608,-7.96615 -3.85731,7.96615 H 307.9723 a 5.03052,5.03052 0 0 1 -2.85851,-9.17017 l 17.871,-12.34231 v -8.05352 l 18.79711,1.12193 z"
       fill="#2f2e41"
       id="path26" />
    <rect
       x="360.17496"
       y="268.38113"
       width="59.38485"
       height="67.607368"
       fill="#ffb6b6"
       id="rect28" />
    <path
       d="m 361.54537,301.72802 -10.04975,11.877 -17.35865,36.54449 -43.7393,104.06941 -9.25023,22.00919 7.47021,38.90734 c 0,0 1.20911,27.41093 1.20911,31.89768 0,9.13613 7.64134,14.19843 7.64134,14.19843 l 5.606,29.19819 54.36,-2.284 c 0,0 -1.89668,-32.18465 -13.28212,-40.30307 -11.38544,-8.11842 -16.6191,-50.42877 -16.6191,-50.42877 l -6.1865,-18.77224 60.29846,-71.47763 0.38919,24.98513 0.18838,12.09342 c 0,0 -8.83024,78.65618 1.463,93.921 10.29324,15.26482 0.20981,13.46892 0.20981,13.46892 l 0.49048,31.48835 64.40973,0.45681 -14.20976,-90.65578 c 0,0 -7.2153,-5.6971 -3.35489,-11.42384 3.86041,-5.72674 -3.74157,-12.74053 -3.74157,-12.74053 l 3.40954,-70.77248 c 0,0 -3.7751,-12.22439 0.66547,-13.81333 4.44057,-1.58894 0.583,-12.10132 0.583,-12.10132 l 0.65994,-13.69836 -13.24739,-42.483 z"
       fill="#2f2e41"
       id="path30" />
    <path
       d="m 420.47341,268.38114 6.39529,-19.18588 4.56807,-6.39529 1.82722,-18.27226 c 0,-49.33511 -11.00445,-41.11978 -11.00445,-41.11978 l -6.3542,-17.35146 -29.23561,-0.91361 -18.72906,17.81546 -15.53142,5.48167 -6.082,31.60212 11.10688,33.72122 2.74084,18.27226 c -5.22846,9.6521 -4.78621,5.08671 -0.45681,12.33378 l 51.61914,14.161 c 18.27226,6.39529 18.27226,-10.04974 14.60827,-14.161 -3.6639,-4.11126 -5.47216,-15.98823 -5.47216,-15.98823 z"
       fill="#3f3d56"
       id="path32" />
    <circle
       cx="397.5108"
       cy="131.90749"
       r="27.102449"
       fill="#ffb6b6"
       id="circle34" />
    <path
       d="M 371.11555,174.6347"
       fill="#2f2e41"
       id="path36" />
    <path
       d="m 433.69336,168.08467 a 3.32909,3.32909 0 0 1 -1.8546,4.86957 c -3.63616,1.206 -5.87453,4.72337 -8.48745,7.53731 -2.60383,2.8048 -6.79728,5.1345 -10.12284,3.225 -3.31642,-1.90027 -3.54483,-6.75155 -6.32219,-9.38276 -2.70432,-2.55811 -7.19928,-2.24751 -10.37869,-0.30151 l -0.0951,0.0585 a 3.35133,3.35133 0 0 1 -5.12711,-3.40958 q 1.671,-8.88678 3.34014,-17.77163 a 59.76117,59.76117 0 0 1 -12.50736,18.9118 13.757,13.757 0 0 1 -5.42687,3.8189 c -1.90027,0.603 -3.74579,-1.36128 -5.59131,-1.005 4.58636,-4.01077 20.00815,-29.71986 17.249,-46.90492 q -4.865,0.5482 -9.72994,1.09635 a 8.94324,8.94324 0 0 0 -2.1744,-4.10208 10.51041,10.51041 0 0 1 -0.55734,4.41271 c -1.35213,0.15535 -2.71341,0.30151 -4.06554,0.4568 -1.882,0.21017 -3.92858,0.39285 -5.54563,-0.59381 -2.69517,-1.64449 -2.77742,-5.53649 -2.01,-8.60628 2.2475,-8.926 9.063,-16.39022 17.40431,-20.30045 8.3413,-3.90115 10.80806,4.78732 19.597,2.01 17.35864,-5.48168 30.66085,3.892 35.34769,21.28717 3.93774,14.59037 1.07812,30.07612 -2.9418,44.69393 z"
       fill="#2f2e41"
       id="path38" />
    <path
       d="m 508.72548,632.57612 h -33.18652 l -0.14258,-0.25879 c -0.42431,-0.76953 -0.834,-1.585 -1.2168,-2.42285 -3.41845,-7.31836 -4.86328,-15.68848 -6.13818,-23.07325 l -0.96,-5.5664 a 3.43689,3.43689 0 0 1 5.41016,-3.36231 q 7.56517,5.5049 15.13623,10.999 c 1.91113,1.39062 4.09375,3 6.18408,4.73925 0.20166,-0.97949 0.4126,-1.96191 0.62353,-2.93066 a 3.43916,3.43916 0 0 1 6.28077,-1.08594 l 3.88281,6.23828 c 2.832,4.55567 5.33154,9.04493 4.82226,13.88672 a 0.756,0.756 0 0 1 -0.0132,0.17578 10.94679,10.94679 0 0 1 -0.56348,2.33106 z"
       fill="#f0f0f0"
       id="path40" />
    <path
       d="m 542.03488,633.29389 -315.3575,0.30731 a 1.19069,1.19069 0 0 1 0,-2.38135 l 315.3575,-0.30731 a 1.19069,1.19069 0 0 1 0,2.38135 z"
       fill="#cacaca"
       id="path42" />
    <path
       d="m 255.71112,189.40928 -34.688,-29.29381 a 5.86536,5.86536 0 0 1 -0.69609,-8.25652 l 6.38441,-7.56005 a 5.86537,5.86537 0 0 1 8.25653,-0.6961 l 34.688,29.29381 a 5.86536,5.86536 0 0 1 0.6961,8.25652 l -6.38442,7.56006 a 5.86537,5.86537 0 0 1 -8.25653,0.69609 z"
       fill="#3f3d56"
       id="path44" />
    <path
       d="m 222.84327,152.46843 a 3.161,3.161 0 0 0 0.37511,4.44934 l 34.688,29.29381 a 3.16093,3.16093 0 0 0 4.44933,-0.37512 l 6.38442,-7.56 a 3.161,3.161 0 0 0 -0.37512,-4.44934 l -34.688,-29.29381 a 3.161,3.161 0 0 0 -4.44934,0.37512 z"
       fill="#ffffff"
       id="path46" />
    <path
       d="m 243.2074,163.85619 a 1.33329,1.33329 0 0 1 -1.05444,0.55768 l -5.45025,0.12517 a 1.3336611,1.3336611 0 1 1 -0.0612,-2.66662 l 3.56552,-0.082 -3.5114,-9.26539 a 1.33372,1.33372 0 0 1 2.49431,-0.94531 l 4.17956,11.02823 a 1.33428,1.33428 0 0 1 -0.14089,1.21782 z"
       fill="#6c63ff"
       id="path48"
       style="fill:#ec407a;fill-opacity:1" />
    <path
       d="m 243.90646,166.18468 a 9.08846,9.08846 0 0 1 7.29959,11.8715 l 25.5864,19.70946 -15.87006,5.46132 -21.86426,-19.5537 a 9.13775,9.13775 0 0 1 4.84831,-17.48852 z"
       fill="#ffb6b6"
       id="path50" />
    <path
       d="m 377.11481,175.92992 -65.50929,40.27784 c 0,0 -26.4126,-9.77273 -21.25071,-14.29686 5.16189,-4.52413 -11.2708,-7.58266 -11.2708,-7.58266 l -18.15322,-12.213 -10.534,12.24231 c 0,0 1.91937,19.88518 5.18517,16.442 3.2658,-3.44318 8.14738,5.96269 8.14738,5.96269 0,0 1.44254,10.50246 10.73916,7.8595 9.29662,-2.64296 34.24217,25.06044 34.24217,25.06044 L 389.333,219.61313 Z"
       fill="#3f3d56"
       id="path52" />
    <path
       d="m 258.86502,135.9476 a 4.89054,4.89054 0 0 1 -3.91317,-1.95719 l -11.99792,-15.99749 a 4.89186,4.89186 0 1 1 7.82715,-5.87 l 7.84945,10.46514 20.16029,-30.24 a 4.8920619,4.8920619 0 0 1 8.14088,5.42726 l -23.99584,35.99375 a 4.894,4.894 0 0 1 -3.93468,2.177 c -0.0454,7.7e-4 -0.0908,0.002 -0.13616,0.002 z"
       fill="#ffffff"
       id="path54" />
  </g>
</svg>
