<?xml version="1.0" encoding="UTF-8" standalone="no"?>
<svg
   width="609.73226"
   height="361.50171"
   viewBox="0 0 609.73226 361.50171"
   version="1.1"
   id="svg44"
   sodipodi:docname="match.svg"
   inkscape:version="1.1.2 (0a00cf5339, 2022-02-04)"
   xmlns:inkscape="http://www.inkscape.org/namespaces/inkscape"
   xmlns:sodipodi="http://sodipodi.sourceforge.net/DTD/sodipodi-0.dtd"
   xmlns="http://www.w3.org/2000/svg"
   xmlns:svg="http://www.w3.org/2000/svg">
  <defs
     id="defs48" />
  <sodipodi:namedview
     id="namedview46"
     pagecolor="#ffffff"
     bordercolor="#666666"
     borderopacity="1.0"
     inkscape:pageshadow="2"
     inkscape:pageopacity="0.0"
     inkscape:pagecheckerboard="0"
     showgrid="false"
     inkscape:zoom="1.9308346"
     inkscape:cx="304.79048"
     inkscape:cy="222.18372"
     inkscape:window-width="1852"
     inkscape:window-height="1043"
     inkscape:window-x="0"
     inkscape:window-y="0"
     inkscape:window-maximized="1"
     inkscape:current-layer="svg44" />
  <path
     d="M609.24091,223.4704l-34.02997-163.78003c-2.62-12.62-15.01001-20.73999-27.62-18.12l-105.20001,21.86005-17.19,3.56995-216.51001,44.99005-91.09003,18.92999-98.98999,20.57001c-12.60999,2.62-20.73999,15.00995-18.12,27.62l34.03003,163.77997c2.62,12.62,15.01996,20.73999,27.63,18.12l67.58997-14.03998,45.07001-9.37,15.14001-3.15002,47.34998-9.83997,138.06-28.67999,53.97003-11.22003,2.76996-.57001,51.11005-10.62,30.13995-6.27002,11.06-2.29999,66.72003-13.85999c12.60999-2.62,20.72998-15.01001,18.10999-27.62Zm-18.51996,25.65997l-65.91003,13.70001-12.65002,2.63-29.00995,6.02002-51.13,10.63-1.77002,.37-54.77002,11.38-138.31,28.73999-47.46997,9.87-14.59003,3.02997-45.25,9.40002-68.12,14.15997c-11.54999,2.40002-22.85999-5.01996-25.26001-16.56995l-.03998-.22003c-15.76001-75.81,16.42999-150.44,75.91998-192.39001,20.46002-14.44,44.14001-25,70.22003-30.41998l27.71997-5.76001,214.17004-44.51001,31.47998-6.53998,92.03998-19.13c11.54999-2.40002,22.85999,5.02002,25.26001,16.57001l34.03998,163.77997c2.40002,11.55005-5.01996,22.86005-16.56995,25.26001Z"
     fill="#3f3d56"
     id="path2" />
  <g
     id="g42">
    <path
       d="M145.7679,43.6657c-3.52921-12.86713,24.93561-23.90094,32.4104-13.539,1.0394-1.47314,4.88055-2.368,6.64301-1.91606,1.7251,.5728,3.31946,1.48212,4.69073,2.67528,1.98837,1.52744,4.04901,3.10909,5.26913,5.30531,1.22922,2.18719,1.41901,5.16978-.23495,7.06776-1.31052,1.50935-5.17883,2.48546-7.14914,2.88313-1.37375,.28018-2.53064,.50613-3.52481,.66882-.90305-1.30106-1.31906-2.87857-1.17499-4.45575-1.35492,.91399-2.23013,2.38596-2.38599,4.01288-.02713,.33441,11.10773,41.30386,11.10773,41.30386-1.33786,.76141-2.74509,1.39389-4.2027,1.88892-2.88351-4.40695-5.09213-9.22015-6.55258-14.28009-.33569,3.38345-.29324,6.79376,.12653,10.16779,.22327,1.89197,.543,3.77133,.95801,5.63068-13.23172,2.85599-33.13345,1.91611-41.7919-10.23099l-.00436-.15088c-.01599-1.14145-.95432-2.05383-2.09576-2.03784-.84155,.01181-1.59195,.53268-1.89725,1.31702-.21008,.53592-.40341,.99979-.57593,1.36877-2.52148-9.02002,.74124-19.45892,10.38483-37.67961Z"
       fill="#2f2e41"
       id="path4" />
    <path
       d="M237.30091,324.61042l-47.34998,9.83997-.25-1.97998-7.01001-56.17999s-3.54999,30.77997-7.58002,59.20996c-.09998,.70001-.20001,1.40002-.29999,2.10004l-45.07001,9.37,.12-2.07001,5.56-95,4.55005-41.41998c-.73004,8.69,2,0,5-22,6.57996-2.09003,58.65997-3.11005,58.65997-3.11005l27.96002,50.06006s.19,1.83997,.52997,5.02997v.01001c.91003,8.46997,2.85004,48.64001,5.04999,84.13,.04004,.66998,.09003,1.33997,.13,2.01001Z"
       fill="#2f2e41"
       id="path6" />
    <path
       d="M95.10475,269.20058c3.04355-2.09462,3.86614-6.23166,1.85538-9.33125-.20134-.29991-.42716-.58262-.67514-.84526l10.80223-21.20346-8.83056-9.26672-11.65733,30.64599c-2.07588,2.28791-2.34927,5.68742-.66569,8.27767,1.98812,2.99544,6.02808,3.81204,9.02354,1.82393h0c.04969-.03295,.09884-.06658,.14758-.1009Z"
       fill="#ffb6b6"
       id="path8" />
    <path
       d="M297.19417,218.70789c-3.65784-.52057-6.23621-3.8588-5.81567-7.52945,.04675-.35818,.12311-.71185,.22821-1.05743l-19.11249-14.177,3.78156-12.2291,24.08209,22.2514c2.87738,1.12448,4.63562,4.04678,4.28131,7.11569-.44666,3.56732-3.70056,6.09714-7.26788,5.65051-.0592-.00742-.11816-.01562-.17712-.02463Z"
       fill="#ffb6b6"
       id="path10" />
    <circle
       cx="167.88631"
       cy="58.26751"
       r="23.18303"
       fill="#ffb6b6"
       id="circle12" />
    <path
       d="M389.6709,239.0304l-.16998,.21997s.65997-3.39996,.16998-.21997Z"
       fill="#2f2e41"
       id="path14" />
    <circle
       cx="439.72945"
       cy="33.05266"
       r="26.23785"
       fill="#ffb6b6"
       id="circle16" />
    <path
       d="M408.31404,28.46259c2.82874,.8782,5.55579,1.39589,7.39539-.92442s1.35889-4.9734,4.09521-6.092c2.28839-.7673,4.78094-.65189,6.98865,.32359,.39752,.14787,.78583,.31427,1.16479,.48067,.21259-.18491,.42523-.36047,.65637-.52693,1.7392-1.2368,3.88647-1.75954,5.99951-1.46056-1.54449,.74605,1.18457,8.95874,.367,10.46658,.758,.379,1.52527,.758,2.30182,1.08156,6.61633,2.70653,10.12109-4.86206,16.25409-8.53452-3.0321,7.987-.6748,10.83421,3.77167,18.12791l.17566,.4252c-.44373-1.9135,5.37091-4.12289,5.37091-1.34962-.25549,2.84132-.87689,5.63771-1.84888,8.31981,5.70367-8.58794,9.0686-18.6364,6.85919-28.27814-.47144-2.02449-.68408-4.19685-1.96899-5.84236-1.28491-1.63618-3.65143-2.59763-5.5188-1.6732-.7074-9.58147-10.26338-10.70858-19.84487-10.00121-3.40521,.2514-5.44584-4.56744-8.14671-2.4785-2.31104,1.78412-4.13214,4.12294-6.1936,6.2029s-4.50201,3.97501-7.38617,4.49269c-1.83032,.32358-3.89178,.12943-5.35242,1.285-1.69171,1.34042-1.71014,3.69769-1.70099,5.96254,1.65527-.04723,3.28705,.40012,4.68683,1.2849-1.71338,.04309-3.36957,.62537-4.73297,1.664-.02625,.0162-.05103,.03477-.07391,.05547-.49933,3.80862-.2959,4.61292-3.31879,6.98863Z"
       fill="#2f2e41"
       id="path18" />
    <path
       d="M256.70404,160.79671h.27783l-28.15997-27.32874-22.00543-23.47589c.00745-.24567,.01208-.38574,.01208-.38574l-.67084-.31702s-22.13013-13.13574-22.88562-13.06287l-3.39716-8.32233-28.41583-6.02771-5.64209,11.35681-11.01691,6.37823c-2.54877,.85284-4.89832,2.21307-6.90704,3.99872l-1.07611,.62305,.07977,.32703c-3.6037,3.62244-5.67072,8.49573-5.77026,13.60449l-10.9137,39.49005-.00977,.14191h.00006l-19.97412,88.69427,14.06519,.69836,35.67262-93.70825c1.19606-.26892-8.07915,97.3252-7,97,15.11266-4.55422,112.14104-4.90112,100.56603-16.47614-4.74591-4.74591-24.82544-56.27179-25.96411-73.20825h-.00006c-.15198-2.26044-.2829-4.54114-.39398-6.82037,3.9516,2.02417,7.78894,4.26392,11.49475,6.70923l.16064,.11115h.00037l-.00067,.00024,62.45599,43.20599,9.99896-9.91595-34.58063-33.29028Z"
       fill="#6c63ff"
       id="path20"
       style="fill:#ec407a;fill-opacity:1" />
    <path
       d="M133.11464,45.4733c-3.52921-12.86713,24.93561-23.90094,32.41043-13.539,1.0394-1.47314,4.88055-2.368,6.64301-1.91608,1.7251,.57281,3.31946,1.48212,4.69077,2.67529,1.98837,1.52744,4.04901,3.10909,5.26913,5.30531,1.22922,2.18719,1.41901,5.16978-.23499,7.06776-1.31052,1.50934-5.17883,2.48547-7.14911,2.88315-1.37375,.28018-2.53064,.50613-3.52481,.66879-.90308-1.30106-1.31906-2.87857-1.17499-4.45575-1.35492,.91397-2.23013,2.38596-2.38599,4.01288-.02713,.33441,11.10773,41.30386,11.10773,41.30386-1.33786,.76141-2.74509,1.39389-4.2027,1.88892-2.88351-4.40695-5.0921-9.22015-6.55258-14.28009-.33569,3.38345-.29324,6.79376,.12653,10.16779,.22327,1.89197,.54303,3.77133,.95801,5.63068-13.23172,2.85605-33.13345,1.91611-41.7919-10.23099l-.00436-.15088c-.01599-1.14145-.95432-2.05383-2.09576-2.03784-.84155,.01181-1.59195,.53268-1.89725,1.31702-.21008,.53592-.40341,.99982-.57593,1.36877-2.52155-9.01999,.74118-19.45892,10.38477-37.6796Z"
       fill="#2f2e41"
       id="path22" />
    <path
       d="M317.23378,110.06308h0c-.03375,.03281-.06488,.06732-.09827,.1004-5.2121-5.17209-13.60614-5.21759-18.87402-.10236h0c-5.28662,5.13541-5.46527,13.56577-.40094,18.92053l-.0033,.0032,.1261,.12985h0l18.64935,19.20184,19.33173-18.77548-.05377-.05533c.03247-.03094,.06628-.05963,.09851-.091h0c5.33832-5.18469,5.46283-13.71524,.27814-19.05356h0c-5.18469-5.33829-13.71527-5.4628-19.05353-.27811Z"
       fill="#6c63ff"
       id="path24"
       style="fill:#ec407a;fill-opacity:1" />
    <path
       d="M483.21094,273.52039l-51.11005,10.62-.07996-2.02997-.14001-3.63-1.63,4-.91998,2.22998-53.97003,11.22003,.12-2.07001,1.07001-18.78003,11.46002-35.66998,3.85999-12,80.85999-6.79999c0,.00995,.01001,.00995,.01001,.01996,7.06,12.89001,9.79999,31.86005,10.41003,50.85004,.02997,.67999,.04999,1.35999,.06,2.03998Z"
       fill="#2f2e41"
       id="path26" />
    <path
       d="M425.91936,64.84388l29.7905-2.55347,5.10694,7.66042s28.93935,17.8743,29.7905,21.27893-18.72546,129.3759-17.8743,129.3759-24.68356,14.46967-55.32522,17.02314-31.56319,1.63194-31.56319,1.63194l12.83773-31.42245,2.97905-39.57881-2.55347-74.90184,22.98125-17.02314,3.83021-11.49062Z"
       fill="#6c63ff"
       id="path28"
       style="fill:#ec407a;fill-opacity:1" />
    <g
       id="g34">
      <path
         d="M510.40543,260.5883c-.53242-2.68905-.41336-5.27539,.21658-7.39868l-6.69011-25.29634,12.13013-2.8313,5.48043,25.96545c1.39153,1.72304,2.48716,4.06888,3.01958,6.75793,1.21632,6.14312-.96673,11.75051-4.87598,12.52452-3.90925,.77401-8.06431-3.57847-9.28063-9.72157h0Z"
         fill="#ffb6b6"
         id="path30" />
      <path
         d="M473.19914,88.97177s15.18738-6.25363,22.33439,5.36025c7.147,11.61388,25.90789,148.30033,25.90789,148.30033l-15.63407,2.23344-30.82145-110.33187-1.78675-45.56215Z"
         fill="#6c63ff"
         id="path32"
         style="fill:#ec407a;fill-opacity:1" />
    </g>
    <g
       id="g40">
      <path
         d="M308.65311,218.1476c1.82991-2.04105,3.04711-4.32617,3.58868-6.4737l18.66046-18.34256-8.98787-8.62407-17.96147,19.53523c-2.07591,.77191-4.21508,2.23043-6.04499,4.27147-4.18043,4.66276-5.1639,10.59921-2.19669,13.25947,2.96721,2.66026,8.76147,1.03692,12.94188-3.62583h0Z"
         fill="#ffb6b6"
         id="path36" />
      <path
         d="M428.21418,89.53309s-9.87111-13.12729-21.94347-6.78537c-12.07236,6.34192-97.94757,114.3262-97.94757,114.3262l12.30646,9.89765,82.80123-79.16464,24.78335-38.27385Z"
         fill="#6c63ff"
         id="path38"
         style="fill:#ec407a;fill-opacity:1" />
    </g>
  </g>
</svg>
