<?xml version="1.0" encoding="UTF-8" standalone="no"?>
<svg
   viewBox="0 0 1000 990"
   version="1.1"
   id="svg209"
   sodipodi:docname="error.svg"
   inkscape:version="1.1 (c68e22c387, 2021-05-23)"
   xmlns:inkscape="http://www.inkscape.org/namespaces/inkscape"
   xmlns:sodipodi="http://sodipodi.sourceforge.net/DTD/sodipodi-0.dtd"
   xmlns="http://www.w3.org/2000/svg"
   xmlns:svg="http://www.w3.org/2000/svg">
  <defs
     id="defs213" />
  <sodipodi:namedview
     id="namedview211"
     pagecolor="#ffffff"
     bordercolor="#666666"
     borderopacity="1.0"
     inkscape:pageshadow="2"
     inkscape:pageopacity="0.0"
     inkscape:pagecheckerboard="0"
     showgrid="false"
     inkscape:zoom="0.76060606"
     inkscape:cx="500.25896"
     inkscape:cy="494.34263"
     inkscape:window-width="1864"
     inkscape:window-height="1043"
     inkscape:window-x="56"
     inkscape:window-y="0"
     inkscape:window-maximized="1"
     inkscape:current-layer="svg209" />
  <mask
     id="mask">
    <path
       d="M1000,0H0V718.31H179.2c38.38,142.38,167.45,247.1,320.8,247.1s282.42-104.72,320.8-247.1H1000Z"
       fill="white"
       id="path2" />
  </mask>
  <circle
     cx="500"
     cy="630.1601"
     r="332.44199"
     fill="#85c5e5"
     id="circle5"
     style="fill:#ec407a;fill-opacity:1" />
  <path
     d="m 501.71,209.52 c -166.14,0 -300.83,134.68 -300.83,300.83 v 163.43 c 9.48,10.52 25.37,19.57 46,27.19 l 13.32,-39.77 14.46,48.46 c 152.76,40.64 466.71,25.28 527.88,-35.88 V 510.35 C 802.54,344.2 667.85,209.52 501.71,209.52 Z"
     fill="#d96e27"
     id="path7" />
  <path
     d="m 242.87,699.45 c 1.32,0.51 2.65,1 4,1.52 l 13.33,-39.77 14.46,48.46 c 45.22,12 104.55,19.15 167.28,21.63 L 469.22,705.07 235.81,529.43 c 0,0 -6.14,101.45 7.06,170.02 z"
     fill="#c65c22"
     id="path9" />
  <path
     d="m 617.2,552.78 25.31,170.76 c 34.8,-4.34 66.62,-10.27 93.11,-17.73 v 0 c 0,0 33.09,-36.89 29.52,-176.38 -3.57,-139.49 -147.94,23.35 -147.94,23.35 z"
     fill="#c65c22"
     id="path11" />
  <path
     d="m 501.71,209.52 c -166.14,0 -300.83,134.68 -300.83,300.83 v 163.43 c 9.48,10.52 25.37,19.57 46,27.19 l 13.32,-39.77 14.46,48.46 c 152.76,40.64 466.71,25.28 527.88,-35.88 V 510.35 C 802.54,344.2 667.85,209.52 501.71,209.52 Z"
     fill="none"
     stroke="#592d3d"
     stroke-miterlimit="10"
     stroke-width="12px"
     id="path13" />
  <path
     d="m 610,758.72 c 90.76,0 72,114.24 72.87,241.28 H 610 Z"
     fill="#fdd2b2"
     id="path15" />
  <path
     d="M 632.74,831.87 610,870 l 11.38,130 h 31.76 c 0.77,-180.27 -20.4,-168.13 -20.4,-168.13 z"
     fill="#f3ab98"
     id="path17" />
  <path
     d="m 233.25,500 c 0,-147.32 119.43,-266.75 266.75,-266.75 147.32,0 266.75,119.43 266.75,266.75 A 266.22,266.22 0 0 1 668.1,707.12 q -8.21,6.68 -16.94,12.69 C 591,758 515,758 446.39,751.89 c -6.66,-1 -13.3,-2.26 -19.89,-3.71 -26.33,-5.8 -51.82,-14.75 -75.37,-27.8 Q 342.4,715 334.2,708.76 a 199.59,199.59 0 0 1 -15.8,-13.38 q -7.14,-6.63 -13.79,-13.78 A 265.86,265.86 0 0 1 233.25,500 Z"
     fill="#fdd2b2"
     id="path19" />
  <path
     d="m 269.61,634.48 c 0.7,1.2 1.39,2.4 2.11,3.58 0.43,0.72 0.88,1.42 1.33,2.14 0.66,1.07 1.32,2.14 2,3.19 0.48,0.76 1,1.5 1.46,2.24 0.66,1 1.32,2 2,3 0.51,0.76 1,1.52 1.56,2.28 0.66,1 1.32,1.92 2,2.88 0.54,0.77 1.1,1.53 1.65,2.3 0.55,0.77 1.34,1.85 2,2.77 0.66,0.92 1.15,1.53 1.73,2.29 0.58,0.76 1.37,1.8 2.07,2.7 0.7,0.9 1.19,1.51 1.79,2.26 0.6,0.75 1.41,1.76 2.12,2.63 0.71,0.87 1.23,1.49 1.85,2.23 0.62,0.74 1.44,1.72 2.17,2.57 0.73,0.85 1.27,1.47 1.91,2.2 l 2.22,2.5 c 0.65,0.73 1.31,1.44 2,2.16 0.86,0.94 1.73,1.87 2.6,2.79 l 1.21,1.28 c 1.29,1.34 2.59,2.68 3.91,4 l 0.26,0.27 c 1.29,1.28 2.6,2.55 3.91,3.81 l 1.58,1.5 c 0.95,0.89 1.9,1.78 2.86,2.66 l 1.16,1.06 c 1,0.94 2.09,1.86 3.14,2.78 q 4.9,4.27 10,8.19 8.19,6.24 16.93,11.62 c 23.55,13 49,22 75.37,27.8 6.59,1.45 13.23,2.7 19.89,3.71 42.1,3.75 87,5.18 129.28,-3.08 C 508.45,729 185.59,612.74 388.8,257.48 v 0 c -2.72,1.25 -5.4,2.54 -8.06,3.88 l -0.59,0.29 c -1.22,0.61 -2.44,1.24 -3.65,1.88 l -1,0.53 c -3.76,2 -7.48,4.07 -11.13,6.23 l -0.9,0.53 c -1.16,0.69 -2.31,1.39 -3.46,2.1 l -0.87,0.54 q -5.36,3.35 -10.55,6.93 l -1.08,0.75 c -1.09,0.76 -2.16,1.52 -3.23,2.29 l -0.66,0.47 q -3.27,2.39 -6.46,4.84 l -0.62,0.48 c -1,0.78 -2,1.58 -3,2.39 l -1.17,0.94 c -1,0.81 -2,1.62 -3,2.45 v 0 c -2.11,1.75 -4.19,3.55 -6.24,5.37 l -1.14,1 -2.69,2.45 -1.3,1.18 q -4.28,4 -8.37,8.17 l -1.38,1.41 c -0.79,0.82 -1.58,1.64 -2.36,2.47 -0.46,0.49 -0.92,1 -1.37,1.48 q -2.06,2.2 -4.06,4.46 c -0.45,0.51 -0.91,1 -1.36,1.54 -0.71,0.81 -1.41,1.63 -2.11,2.45 l -1.51,1.79 c -0.68,0.81 -1.36,1.62 -2,2.44 -0.54,0.66 -1.08,1.33 -1.61,2 -1.07,1.33 -2.12,2.66 -3.16,4 -0.54,0.7 -1.08,1.4 -1.61,2.11 -0.53,0.71 -1.2,1.59 -1.79,2.4 -0.59,0.81 -1.07,1.45 -1.59,2.18 -0.52,0.73 -1.13,1.55 -1.68,2.33 q -1.42,2 -2.8,4.05 c -0.5,0.73 -1,1.48 -1.49,2.22 -0.49,0.74 -1.1,1.66 -1.64,2.5 l -1.49,2.31 -1.68,2.71 c -0.43,0.69 -0.86,1.38 -1.28,2.07 -0.89,1.46 -1.75,2.93 -2.61,4.4 l -1.22,2.16 c -0.54,0.95 -1.08,1.91 -1.61,2.87 -0.4,0.73 -0.8,1.46 -1.19,2.19 -0.64,1.19 -1.27,2.39 -1.9,3.59 l -1.2,2.34 c -0.64,1.28 -1.28,2.55 -1.91,3.84 -0.33,0.69 -0.67,1.39 -1,2.09 -0.52,1.09 -1,2.19 -1.53,3.29 -0.31,0.66 -0.61,1.32 -0.91,2 q -1.11,2.47 -2.17,5 c -0.22,0.52 -0.43,1.05 -0.65,1.57 -0.53,1.27 -1.05,2.54 -1.56,3.82 -0.27,0.67 -0.53,1.34 -0.79,2 -0.5,1.26 -1,2.53 -1.45,3.8 -0.21,0.55 -0.42,1.1 -0.62,1.65 q -0.94,2.63 -1.85,5.26 l -0.56,1.7 q -0.66,2 -1.29,4 l -0.6,1.91 c -0.47,1.54 -0.93,3.08 -1.37,4.63 -0.1,0.33 -0.2,0.66 -0.29,1 q -0.78,2.76 -1.5,5.54 c -0.16,0.59 -0.3,1.19 -0.45,1.78 -0.35,1.39 -0.69,2.78 -1,4.18 l -0.42,1.75 c -0.43,1.9 -0.85,3.8 -1.24,5.71 l -0.15,0.77 q -0.51,2.55 -1,5.1 c -0.11,0.61 -0.21,1.21 -0.32,1.82 -0.26,1.49 -0.51,3 -0.74,4.5 -0.08,0.51 -0.17,1 -0.24,1.52 -0.3,1.95 -0.57,3.91 -0.83,5.88 l -0.15,1.3 c -0.2,1.59 -0.38,3.19 -0.55,4.79 -0.06,0.6 -0.13,1.2 -0.19,1.81 -0.16,1.68 -0.31,3.37 -0.45,5.06 0,0.35 -0.06,0.69 -0.08,1 q -0.22,3 -0.39,6.05 c 0,0.53 0,1.07 -0.07,1.6 q -0.1,2.36 -0.18,4.71 c 0,0.59 0,1.18 0,1.77 0,2.05 -0.08,4.11 -0.08,6.17 0,0 0,0.07 0,0.1 0,2.22 0,4.42 0.08,6.62 0,0.76 0.06,1.52 0.08,2.28 0.05,1.47 0.1,2.94 0.17,4.41 0,0.89 0.11,1.77 0.16,2.66 0.08,1.33 0.15,2.66 0.25,4 0.07,1 0.16,1.89 0.24,2.83 0.11,1.26 0.21,2.52 0.34,3.77 0.09,1 0.21,1.94 0.31,2.91 0.14,1.21 0.27,2.43 0.42,3.64 0.12,1 0.26,2 0.39,2.95 0.16,1.18 0.32,2.37 0.5,3.55 0.15,1 0.31,2 0.47,3 0.18,1.16 0.37,2.33 0.57,3.49 0.18,1 0.36,2 0.55,3 0.21,1.15 0.43,2.3 0.65,3.44 0.22,1.14 0.41,2 0.62,3 0.24,1.14 0.48,2.27 0.74,3.4 0.26,1.13 0.44,2 0.68,2.93 0.26,1.13 0.54,2.25 0.82,3.36 0.28,1.11 0.49,1.95 0.74,2.91 0.3,1.12 0.6,2.23 0.91,3.34 0.26,1 0.53,1.92 0.81,2.87 0.32,1.11 0.65,2.21 1,3.31 0.35,1.1 0.58,1.89 0.88,2.84 0.3,0.95 0.7,2.19 1.06,3.28 0.36,1.09 0.62,1.87 0.94,2.8 0.38,1.09 0.76,2.18 1.15,3.27 0.33,0.91 0.65,1.83 1,2.74 l 1.24,3.27 c 0.35,0.89 0.69,1.79 1,2.68 0.44,1.09 0.89,2.19 1.34,3.28 0.36,0.86 0.71,1.73 1.08,2.59 0.47,1.12 1,2.22 1.45,3.33 0.37,0.82 0.73,1.65 1.1,2.47 0.52,1.16 1.07,2.3 1.6,3.44 l 1.08,2.3 c 0.61,1.26 1.24,2.5 1.87,3.75 0.32,0.63 0.62,1.27 0.95,1.9 q 2.88,5.61 6,11.07 c 0.29,0.47 0.66,1.08 1.02,1.69 z"
     fill="#f3ab98"
     id="path21" />
  <path
     d="m 233.25,500 c 0,-147.32 119.43,-266.75 266.75,-266.75 147.32,0 266.75,119.43 266.75,266.75 A 266.22,266.22 0 0 1 668.1,707.12 q -8.21,6.68 -16.94,12.69 C 591,758 515,758 446.39,751.89 c -6.66,-1 -13.3,-2.26 -19.89,-3.71 -26.33,-5.8 -51.82,-14.75 -75.37,-27.8 Q 342.4,715 334.2,708.76 a 199.59,199.59 0 0 1 -15.8,-13.38 q -7.14,-6.63 -13.79,-13.78 A 265.86,265.86 0 0 1 233.25,500 Z"
     fill="none"
     stroke="#592d3d"
     stroke-miterlimit="10"
     stroke-width="12px"
     id="path23" />
  <path
     d="m 386.12,758.72 c -90.77,0 -72,114.24 -72.87,241.28 h 72.87 z"
     fill="#fdd2b2"
     id="path25" />
  <path
     d="M 367.23,831.87 390,870 378.61,1000 h -31.73 c -0.81,-180.27 20.35,-168.13 20.35,-168.13 z"
     fill="#f3ab98"
     id="path27" />
  <path
     d="M 619.47,1070 H 380.53 a 13.28,13.28 0 0 1 -13.27,-13.28 V 772 a 13.28,13.28 0 0 1 13.27,-13.28 h 233.23 c 13.09,0 19,7.66 19,19.88 v 278.08 A 13.28,13.28 0 0 1 619.47,1070 Z"
     fill="#fdd2b2"
     id="path29" />
  <path
     d="m 629.05,766.62 a 19.33,19.33 0 0 1 -2.51,-4 17.25,17.25 0 0 0 -8.28,-3.51 28.88,28.88 0 0 0 -4.5,-0.34 H 380.53 A 13.28,13.28 0 0 0 367.26,772 c 29,10.42 83.29,16.24 132.74,16.24 63.06,0 104.38,-9.35 129.05,-21.62 z"
     fill="#f3ab98"
     id="path31" />
  <path
     d="m 610,758.72 c 90.76,0 72,114.24 72.87,241.28 h -50.13"
     fill="none"
     stroke="#592d3d"
     stroke-linecap="square"
     stroke-miterlimit="10"
     stroke-width="12px"
     id="path33" />
  <path
     d="m 386.12,758.72 c -90.77,0 -72,114.24 -72.87,241.28 h 50.07"
     fill="none"
     stroke="#592d3d"
     stroke-linecap="square"
     stroke-miterlimit="10"
     stroke-width="12px"
     id="path35" />
  <path
     d="m 380.53,758.82 233.23,-0.1"
     fill="none"
     stroke="#592d3d"
     stroke-miterlimit="10"
     stroke-width="12px"
     id="path37" />
  <path
     d="M 380.53,1070 H 497.15 C 388,1070 396.24,838.82 367.26,838.82 v 217.86 a 13.28,13.28 0 0 0 13.27,13.32 z"
     fill="#f3ab98"
     id="path39" />
  <path
     d="m 361.26,860.85 c -0.19,-3.67 -0.11,-7.34 0.05,-11 0.16,-3.66 0.47,-7.35 0.86,-11 0.2,-1.84 0.4,-3.67 0.65,-5.51 0.25,-1.84 0.49,-3.67 0.85,-5.51 a 44.18,44.18 0 0 1 3.59,-11 44.18,44.18 0 0 1 3.59,11 c 0.36,1.84 0.62,3.67 0.85,5.51 0.23,1.84 0.45,3.67 0.65,5.51 0.38,3.67 0.68,7.34 0.85,11 0.17,3.66 0.25,7.34 0.06,11 z"
     fill="#592d3d"
     id="path41" />
  <path
     d="m 632.74,870 v 8 c 0.26,34 0.26,69 0,102.75 0,2.87 0,5.72 0,8.53 v 67.41 A 13.28,13.28 0 0 1 619.47,1070 H 380.53 a 13.28,13.28 0 0 1 -13.27,-13.28 v -58.2 c 0,-2.51 0,-5.07 0,-7.65 -0.25,-34.87 -0.25,-69.87 0,-105.3 v -24.72"
     fill="none"
     stroke="#592d3d"
     stroke-miterlimit="10"
     stroke-width="12px"
     id="path43" />
  <path
     d="m 626.74,870 c -0.19,-4.17 -0.1,-8.35 0.06,-12.53 0.16,-4.18 0.47,-8.35 0.85,-12.53 0.2,-2.09 0.41,-4.18 0.65,-6.27 0.24,-2.09 0.49,-4.17 0.85,-6.26 a 55.09,55.09 0 0 1 3.59,-12.53 55.09,55.09 0 0 1 3.59,12.53 c 0.36,2.09 0.62,4.18 0.85,6.26 0.23,2.08 0.45,4.18 0.65,6.27 0.38,4.18 0.69,8.35 0.85,12.53 0.16,4.18 0.25,8.36 0.06,12.53 z"
     fill="#592d3d"
     id="path45" />
  <path
     d="M 502.07,878.86 A 69.31,69.31 0 1 1 371,847.39"
     fill="none"
     stroke="#592d3d"
     stroke-miterlimit="10"
     stroke-width="12px"
     id="path47" />
  <path
     d="m 371,847.39 a 69.68,69.68 0 0 1 15,-19.67"
     fill="#fdd2b2"
     id="path49" />
  <path
     d="m 365.65,844.66 a 27,27 0 0 1 3.38,-5.84 37.22,37.22 0 0 1 4.53,-5 c 0.84,-0.76 1.69,-1.5 2.58,-2.19 a 21.1,21.1 0 0 1 2.81,-1.92 15,15 0 0 1 7,-2 25,25 0 0 1 -1.75,6.81 c -0.39,1 -0.83,1.88 -1.29,2.77 l -1.3,2.67 c -0.85,1.76 -1.69,3.49 -2.55,5.19 a 54.51,54.51 0 0 1 -2.76,5 z"
     fill="#592d3d"
     id="path51" />
  <path
     d="m 489.33,838.82 a 69,69 0 0 1 12.74,40"
     fill="#fdd2b2"
     id="path53" />
  <path
     d="m 489.33,838.82 a 26.55,26.55 0 0 1 8.69,7.55 38.8,38.8 0 0 1 3.1,4.79 c 0.93,1.67 1.77,3.39 2.55,5.15 a 55.12,55.12 0 0 1 3.46,11 48,48 0 0 1 0.94,11.53 h -12 c -0.19,-3.25 -0.36,-6.48 -0.7,-9.73 -0.34,-3.25 -0.77,-6.48 -1.4,-9.74 l -0.5,-2.44 -0.58,-2.45 c -0.42,-1.63 -0.87,-3.26 -1.29,-4.93 a 104.17,104.17 0 0 1 -2.27,-10.73 z"
     fill="#592d3d"
     id="path55" />
  <path
     d="m 641.65,878.86 a 69.14,69.14 0 0 0 -21.94,-50.6"
     fill="#fdd2b2"
     id="path57" />
  <path
     d="M 635.65,878.86 A 107,107 0 0 0 634.39,866 81.92,81.92 0 0 0 631.27,853.33 c -0.34,-1 -0.74,-2.07 -1.11,-3.11 -0.37,-1.04 -0.84,-2.05 -1.25,-3.09 -0.41,-1.04 -0.94,-2 -1.38,-3.05 l -1.46,-3 c -2,-4.1 -4.17,-8.19 -6.36,-12.75 a 35.76,35.76 0 0 1 12.22,8.61 c 0.83,0.94 1.7,1.86 2.47,2.85 0.77,0.99 1.54,2 2.25,3 0.71,1 1.43,2.09 2.07,3.18 0.64,1.09 1.31,2.18 1.88,3.32 a 62.19,62.19 0 0 1 5.4,14.29 56.6,56.6 0 0 1 1.62,15.28 z"
     fill="#592d3d"
     id="path59" />
  <path
     d="m 503,878.86 a 69.31,69.31 0 1 0 138.61,0"
     fill="none"
     stroke="#592d3d"
     stroke-miterlimit="10"
     stroke-width="12px"
     id="path61" />
  <path
     d="m 515.77,838.82 a 69,69 0 0 0 -12.73,40"
     fill="#fdd2b2"
     id="path63" />
  <path
     d="m 515.77,838.82 a 104.17,104.17 0 0 1 -2.27,10.75 c -0.42,1.67 -0.87,3.3 -1.29,4.93 l -0.57,2.45 -0.5,2.44 c -0.63,3.26 -1.09,6.5 -1.41,9.74 -0.32,3.24 -0.5,6.48 -0.69,9.73 H 497 a 47,47 0 0 1 0.94,-11.53 54.48,54.48 0 0 1 3.46,-11 c 0.77,-1.76 1.61,-3.48 2.54,-5.15 a 40,40 0 0 1 3.1,-4.79 26.66,26.66 0 0 1 8.73,-7.57 z"
     fill="#592d3d"
     id="path65" />
  <line
     x1="383.44"
     y1="837.54999"
     x2="383.44"
     y2="758.71997"
     fill="none"
     stroke="#592d3d"
     stroke-miterlimit="10"
     stroke-width="12px"
     id="line67" />
  <line
     x1="616.46002"
     y1="837.54999"
     x2="616.46002"
     y2="758.71997"
     fill="none"
     stroke="#592d3d"
     stroke-miterlimit="10"
     stroke-width="12px"
     id="line69" />
  <path
     d="m 470.5,897.78 h 53.9 v 19.7 c -17.74,-6.05 -35.71,-5.9 -53.9,0 z"
     fill="#d67070"
     stroke="#592d3d"
     stroke-miterlimit="10"
     stroke-width="12px"
     id="path71" />
  <path
     d="m 638.1,878.86 a 69.06,69.06 0 0 0 -18.63,-47.28 c -4.22,-4.52 -44.27,6.19 -67.81,27.26 -23.11,20.69 -43.23,54.49 -40.35,58.75 A 69.31,69.31 0 0 0 638.1,878.86 Z"
     fill="#d67070"
     stroke="#592d3d"
     stroke-miterlimit="10"
     stroke-width="12px"
     id="path73" />
  <path
     d="m 598.11,848.39 c -6.12,3.67 -12.15,7.18 -18,11 a 154.79,154.79 0 0 0 -16.53,12.18 c -5.15,4.46 -10.11,9.32 -15,14.26 -4.89,4.94 -9.69,10 -14.75,15.07 a 100,100 0 0 1 11.18,-18.17 106.06,106.06 0 0 1 14.71,-15.73 84.36,84.36 0 0 1 18.14,-11.73 83.45,83.45 0 0 1 20.25,-6.88 z"
     fill="#ffffff"
     id="path75" />
  <path
     d="m 361.9,878.86 a 69.06,69.06 0 0 1 18.63,-47.28 c 4.22,-4.52 44.27,6.19 67.81,27.26 23.11,20.69 43.23,54.49 40.35,58.75 A 69.31,69.31 0 0 1 361.9,878.86 Z"
     fill="#d67070"
     stroke="#592d3d"
     stroke-miterlimit="10"
     stroke-width="12px"
     id="path77" />
  <path
     d="m 455.75,938.92 a 85.36,85.36 0 0 1 -85.36,-85.36 86.38,86.38 0 0 1 0.44,-8.71 69.31,69.31 0 0 0 96.31,93.29 85.67,85.67 0 0 1 -11.39,0.78 z"
     fill="#c46565"
     id="path79" />
  <path
     d="m 361.9,878.86 a 69.06,69.06 0 0 1 18.63,-47.28 c 4.22,-4.52 44.27,6.19 67.81,27.26 23.11,20.69 43.23,54.49 40.35,58.75 A 69.31,69.31 0 0 1 361.9,878.86 Z"
     fill="none"
     stroke="#592d3d"
     stroke-miterlimit="10"
     stroke-width="12px"
     id="path81" />
  <path
     d="m 401.89,848.39 a 83.45,83.45 0 0 1 20.25,6.87 84.36,84.36 0 0 1 18.14,11.74 106.06,106.06 0 0 1 14.65,15.71 100,100 0 0 1 11.18,18.17 c -5.06,-5 -9.84,-10.13 -14.75,-15.07 -4.91,-4.94 -9.84,-9.8 -15,-14.26 A 154.79,154.79 0 0 0 419.83,859.37 C 414,855.57 408,852.06 401.89,848.39 Z"
     fill="#ffffff"
     id="path83" />
  <path
     d="m 677.8,906.35 c 0.21,-37.11 -1.21,-70.07 -7.73,-95.39 C 660,785.6 641.89,770.48 610,770.48 L 632.79,905 c 0,0 22.52,10.24 45.01,1.35 z"
     fill="#f3ab98"
     id="path85" />
  <path
     d="m 686.41,895.79 a 20.31,20.31 0 0 1 -3.7,2.43"
     fill="none"
     stroke="#592d3d"
     stroke-linecap="square"
     stroke-miterlimit="10"
     stroke-width="12px"
     id="path87" />
  <path
     d="m 326.11,809.88 c -6.83,25.57 -8,59.13 -7.74,97 19.9,8.54 50.42,-2.15 50.42,-2.15 l 17.33,-132.24 c -30.87,-0.03 -49.27,13.87 -60.01,37.39 z"
     fill="#f3ab98"
     id="path89" />
  <path
     d="m 613.76,758.72 h -54.21 v 0.1 a 62.78,62.78 0 0 1 -1.44,13.39 60.92,60.92 0 0 1 -1.74,6.33 50.88,50.88 0 0 1 -10,16.83 48.2,48.2 0 0 1 -4.5,4.43 C 516.7,818 476.7,819 452.39,799.22 a 51.79,51.79 0 0 1 -7.11,-7.6 50.84,50.84 0 0 1 -9.1,-19.41 62.41,62.41 0 0 1 -1.07,-6.59 61,61 0 0 1 -0.37,-6.8 v -0.1 H 380.53 A 13.28,13.28 0 0 0 367.26,772 v 284.68 a 13.28,13.28 0 0 0 13.27,13.32 h 238.94 a 13.28,13.28 0 0 0 13.27,-13.28 V 778.6 c 0,-12.22 -5.89,-19.88 -18.98,-19.88 z"
     fill="#d67070"
     id="path91" />
  <path
     d="m 610,758.72 c 63.54,0 73.4,56 73.9,133.17 -18.6,11.62 -48.91,1.31 -48.91,1.31 z"
     fill="#d67070"
     id="path93" />
  <path
     d="M 632.74,831.87 610,870 l 11.38,130 h 11.61 V 894.35 l 17.28,2.89 c -5.67,-72.17 -17.53,-65.37 -17.53,-65.37 z"
     fill="#c46565"
     id="path95" />
  <path
     d="m 386.12,758.72 c -61.78,0 -75.83,53.8 -76.85,127.66 19,19.86 58,4.58 58,4.58 z"
     fill="#d67070"
     id="path97" />
  <path
     d="M 367.23,831.87 V 891 l -17.31,4.31 c 5.67,-70.12 17.31,-63.44 17.31,-63.44 z"
     fill="#c46565"
     id="path99" />
  <path
     d="m 610,758.72 c 67.41,0 78.45,56.29 78.9,133.78 -26.2,12.43 -53.91,0.7 -53.91,0.7"
     fill="none"
     stroke="#592d3d"
     stroke-linecap="square"
     stroke-miterlimit="10"
     stroke-width="12px"
     id="path101" />
  <path
     d="m 386.12,758.72 c -66.79,0 -80.08,54.7 -80.76,130.72 20.64,14.78 61.86,1.56 61.86,1.56"
     fill="none"
     stroke="#592d3d"
     stroke-linecap="square"
     stroke-miterlimit="10"
     stroke-width="12px"
     id="path103" />
  <path
     d="M 380.53,1070 H 497.15 C 388,1070 396.24,838.82 367.26,838.82 v 217.86 a 13.28,13.28 0 0 0 13.27,13.32 z"
     fill="#c46565"
     id="path105" />
  <path
     d="m 361.26,860.85 c -0.19,-3.67 -0.11,-7.34 0.05,-11 0.16,-3.66 0.47,-7.35 0.86,-11 0.2,-1.84 0.4,-3.67 0.65,-5.51 0.25,-1.84 0.49,-3.67 0.85,-5.51 a 44.18,44.18 0 0 1 3.59,-11 43.74,43.74 0 0 1 3.58,11 c 0.37,1.84 0.63,3.67 0.86,5.51 0.23,1.84 0.45,3.67 0.65,5.51 0.38,3.67 0.68,7.34 0.85,11 0.17,3.66 0.25,7.34 0.06,11 z"
     fill="#592d3d"
     id="path107" />
  <path
     d="m 632.74,870 v 8 c 0.26,34 0.26,69 0,102.75 0,2.87 0,5.72 0,8.53 v 67.41 A 13.28,13.28 0 0 1 619.47,1070 H 380.53 a 13.28,13.28 0 0 1 -13.27,-13.28 v -58.2 c 0,-2.51 0,-5.07 0,-7.65 -0.25,-34.87 -0.25,-69.87 0,-105.3 v -24.72"
     fill="none"
     stroke="#592d3d"
     stroke-miterlimit="10"
     stroke-width="12px"
     id="path109" />
  <path
     d="m 626.74,870 c -0.19,-4.17 -0.1,-8.35 0.06,-12.53 0.16,-4.18 0.47,-8.35 0.85,-12.53 0.2,-2.09 0.41,-4.18 0.65,-6.27 0.24,-2.09 0.49,-4.17 0.86,-6.26 a 54.55,54.55 0 0 1 3.58,-12.53 55.09,55.09 0 0 1 3.59,12.53 c 0.36,2.09 0.62,4.18 0.85,6.26 0.23,2.08 0.45,4.18 0.65,6.27 0.38,4.18 0.69,8.35 0.85,12.53 0.16,4.18 0.25,8.36 0.06,12.53 z"
     fill="#592d3d"
     id="path111" />
  <path
     d="m 380.53,758.82 233.23,-0.1"
     fill="none"
     stroke="#592d3d"
     stroke-miterlimit="10"
     stroke-width="12px"
     id="path113" />
  <path
     d="m 559.55,758.82 a 62.78,62.78 0 0 1 -1.44,13.39 60.92,60.92 0 0 1 -1.74,6.33 50.88,50.88 0 0 1 -10,16.83 48.2,48.2 0 0 1 -4.5,4.43 C 516.7,818 476.7,819 452.39,799.22 a 51.79,51.79 0 0 1 -7.11,-7.6 50.84,50.84 0 0 1 -9.1,-19.41 62.41,62.41 0 0 1 -1.07,-6.59 61,61 0 0 1 -0.37,-6.8"
     fill="none"
     stroke="#592d3d"
     stroke-miterlimit="10"
     stroke-width="12px"
     id="path115" />
  <path
     d="m 503.4,828.39 a 66.61,66.61 0 0 1 -18.39,1.1 69.79,69.79 0 0 1 -18.2,-3.76 61.46,61.46 0 0 1 -16.5,-8.64 l -1.86,-1.41 c -0.61,-0.48 -1.2,-1 -1.79,-1.52 a 32.24,32.24 0 0 1 -3.33,-3.28 43.83,43.83 0 0 1 -5.38,-7.51 87.37,87.37 0 0 0 6.74,6.09 c 0.58,0.48 1.17,0.95 1.75,1.4 0.58,0.45 1.23,0.82 1.84,1.24 0.61,0.42 1.22,0.84 1.85,1.23 l 1.91,1.16 a 88.05,88.05 0 0 0 16.1,7.46 106.26,106.26 0 0 0 17.25,4.45 173.7,173.7 0 0 0 18.01,1.99 z"
     fill="#592d3d"
     id="path117" />
  <path
     d="m 307.83,892.5 a 24.54,24.54 0 0 0 3.68,2.77"
     fill="none"
     stroke="#592d3d"
     stroke-linecap="square"
     stroke-miterlimit="10"
     stroke-width="12px"
     id="path119" />
  <path
     d="m 674.7,882.69 a 19.88,19.88 0 0 1 -6.76,2.52 34.83,34.83 0 0 1 -7.2,0.65 40.16,40.16 0 0 1 -7.18,-0.79 c -1.18,-0.21 -2.33,-0.56 -3.49,-0.87 -1.16,-0.31 -2.27,-0.77 -3.37,-1.24 1.21,0 2.38,0.18 3.56,0.28 l 3.52,0.29 c 1.17,0 2.33,0.2 3.5,0.21 1.17,0.01 2.32,0.11 3.48,0.12 q 3.5,0.06 7,-0.19 a 49.31,49.31 0 0 0 6.94,-0.98 z"
     fill="#592d3d"
     id="path121" />
  <path
     d="m 426.88,961.63 a 69.32,69.32 0 0 0 65.62,-47 71,71 0 0 1 -118.19,6.64 L 374.26,936 c 12.74,15.63 30.89,25.63 52.62,25.63 z"
     opacity="0.1"
     id="path123" />
  <path
     d="m 573.12,961.63 a 69.32,69.32 0 0 1 -65.62,-47 71,71 0 0 0 118.19,6.64 v 14.72 c -12.69,15.64 -30.84,25.64 -52.57,25.64 z"
     opacity="0.1"
     id="path125" />
  <path
     d="M 407,943.81 A 69.33,69.33 0 0 1 380.42,831.7"
     fill="#d67070"
     id="path127" />
  <path
     d="m 407,943.81 a 57.14,57.14 0 0 1 -31.21,-16 l -1.62,-1.6 c -0.53,-0.54 -1,-1.13 -1.53,-1.69 -0.53,-0.56 -1,-1.15 -1.48,-1.73 A 22,22 0 0 1 369.73,921 c -0.9,-1.23 -1.81,-2.46 -2.68,-3.72 l -2.37,-3.93 a 69,69 0 0 1 -6.71,-17.13 70.52,70.52 0 0 1 -1.69,-18.3 64.09,64.09 0 0 1 3.4,-17.93 c 0.26,-0.71 0.49,-1.43 0.76,-2.14 l 0.88,-2.1 c 0.55,-1.4 1.26,-2.74 1.91,-4.09 a 60.79,60.79 0 0 1 4.74,-7.63 c 0.85,-1.21 1.82,-2.35 2.75,-3.49 0.93,-1.14 1.94,-2.23 3,-3.23 a 47.65,47.65 0 0 1 6.73,-5.59 c -5.79,10 -9.9,20.19 -11.66,30.67 a 78.09,78.09 0 0 0 -1.18,15.61 84.63,84.63 0 0 0 2,15.41 80.81,80.81 0 0 0 5.12,14.65 76.2,76.2 0 0 0 8.08,13.47 79,79 0 0 0 10.81,11.95 115,115 0 0 0 13.38,10.33 z"
     fill="#592d3d"
     id="path129" />
  <path
     d="M 593.05,943.81 A 69.33,69.33 0 0 0 619.58,831.7"
     fill="#d67070"
     id="path131" />
  <path
     d="m 593.05,943.81 a 115,115 0 0 0 13.35,-10.29 79,79 0 0 0 10.81,-11.95 76.2,76.2 0 0 0 8.08,-13.47 80.81,80.81 0 0 0 5.12,-14.65 84.63,84.63 0 0 0 2,-15.41 78.09,78.09 0 0 0 -1.15,-15.67 C 629.5,851.89 625.39,841.73 619.6,831.7 a 47.65,47.65 0 0 1 6.73,5.59 c 1.08,1 2,2.14 3,3.23 1,1.09 1.9,2.28 2.75,3.49 a 60.79,60.79 0 0 1 4.74,7.63 c 0.65,1.35 1.36,2.69 1.91,4.09 l 0.88,2.1 c 0.27,0.71 0.5,1.43 0.76,2.14 a 64.09,64.09 0 0 1 3.4,17.93 70.52,70.52 0 0 1 -1.69,18.3 69,69 0 0 1 -6.71,17.13 l -2.37,3.93 c -0.87,1.26 -1.78,2.49 -2.68,3.72 a 22,22 0 0 1 -1.43,1.79 c -0.49,0.58 -1,1.16 -1.48,1.73 -0.48,0.57 -1,1.15 -1.53,1.69 l -1.62,1.6 a 57.14,57.14 0 0 1 -31.21,16.02 z"
     fill="#592d3d"
     id="path133" />
  <line
     x1="375.88"
     y1="603.90002"
     x2="306.23999"
     y2="534.26001"
     fill="none"
     stroke="#592d3d"
     stroke-linecap="round"
     stroke-miterlimit="10"
     stroke-width="16px"
     id="line135" />
  <line
     x1="306.23999"
     y1="603.90002"
     x2="375.88"
     y2="534.26001"
     fill="none"
     stroke="#592d3d"
     stroke-linecap="round"
     stroke-miterlimit="10"
     stroke-width="16px"
     id="line137" />
  <line
     x1="695.98999"
     y1="603.90002"
     x2="626.34003"
     y2="534.26001"
     fill="none"
     stroke="#592d3d"
     stroke-linecap="round"
     stroke-miterlimit="10"
     stroke-width="16px"
     id="line139" />
  <line
     x1="626.34003"
     y1="603.90002"
     x2="695.98999"
     y2="534.26001"
     fill="none"
     stroke="#592d3d"
     stroke-linecap="round"
     stroke-miterlimit="10"
     stroke-width="16px"
     id="line141" />
  <circle
     cx="499.70001"
     cy="642.92999"
     r="53.950001"
     fill="#592d3d"
     id="circle143" />
  <path
     d="m 491.21,663.39 c -14.07,-3.37 -27.62,1 -33.45,9.87 a 48.46,48.46 0 0 0 52.82,20.14 49.33,49.33 0 0 0 6,-2 c 1.35,-12.01 -9.5,-24.22 -25.37,-28.01 z"
     fill="#f28195"
     id="path145" />
  <path
     d="m 478.65,652 h 0.8 0.65 c 0.43,0 0.84,0 1.25,0.06 a 17.92,17.92 0 0 1 2.44,0.35 21,21 0 0 1 4.74,1.53 18.15,18.15 0 0 1 7.78,6.65 17.17,17.17 0 0 1 2.77,9.28 14.75,14.75 0 0 1 -2.69,8.47 c -1.3,-2.76 -2.24,-5.2 -3.31,-7.29 a 24,24 0 0 0 -1.62,-2.87 12.38,12.38 0 0 0 -1.95,-2.21 13,13 0 0 0 -4.82,-2.66 24.72,24.72 0 0 0 -2.85,-0.69 c -0.49,-0.07 -1,-0.16 -1.47,-0.22 l -0.73,-0.07 h -0.33 c -0.08,0 -0.26,0 -0.19,0 z"
     fill="#592d3d"
     id="path147" />
  <circle
     cx="499.70001"
     cy="642.92999"
     r="53.950001"
     fill="none"
     stroke="#592d3d"
     stroke-miterlimit="10"
     stroke-width="8px"
     id="circle149" />
  <rect
     x="290.23001"
     y="414.01999"
     width="439.23999"
     height="64.150002"
     fill="#f3ab98"
     id="rect151" />
  <path
     d="m 710,667.66 q -4.71,5.82 -9.71,11.37 c -2.5,2.77 2.58,-1.12 9.71,-11.37 z M 725,351.11 C 694.5,296.7 641.5,259.24 580.22,242 l -6.35,-1.71 c -22.7,-6.28 -46.62,-7 -71.32,-7 -26.69,0 -52.46,2.74 -76.77,10 l -4.26,1.27 A 283.11,283.11 0 0 0 332.67,294 q -4.37,3.58 -8.57,7.32 c -28.34,23.69 -50.34,53.69 -65.47,87.9 q -2.2,4.92 -4.16,9.93 a 212.31,212.31 0 0 0 -9.41,30.61 C 213,556.34 262.89,634 307.17,681.6 c 4.37,4.7 -57.93,-101.85 -17.42,-216 7.73,-0.29 20.24,-0.51 36.19,-0.67 l 15.5,-50.61 17.44,50.38 c 27.4,-0.13 59.88,-0.15 93.88,-0.12 L 465.08,412.22 479,464.6 c 74.37,0.14 151.44,0.52 195.28,0.77 l 13.2,-52.17 15,52.33 8.21,0.05 C 760.78,572 728.5,641.13 710,667.66 A 265.62,265.62 0 0 0 769.3,500 C 769.3,413.58 725,351.11 725,351.11 Z"
     fill="#d96e27"
     id="path153" />
  <path
     d="m 710,667.66 q -4.71,5.82 -9.71,11.37 c -2.5,2.77 2.58,-1.12 9.71,-11.37 z M 725,351.11 C 694.5,296.7 641.5,259.24 580.22,242 l -6.35,-1.71 c -22.7,-6.28 -46.62,-7 -71.32,-7 -26.69,0 -52.46,2.74 -76.77,10 l -4.26,1.27 A 283.11,283.11 0 0 0 332.67,294 q -4.37,3.58 -8.57,7.32 c -28.34,23.69 -50.34,53.69 -65.47,87.9 q -2.2,4.92 -4.16,9.93 a 212.31,212.31 0 0 0 -9.41,30.61 C 213,556.34 262.89,634 307.17,681.6 c 4.37,4.7 -57.93,-101.85 -17.42,-216 7.73,-0.29 20.24,-0.51 36.19,-0.67 l 15.5,-50.61 17.44,50.38 c 27.4,-0.13 59.88,-0.15 93.88,-0.12 L 465.08,412.22 479,464.6 c 74.37,0.14 151.44,0.52 195.28,0.77 l 13.2,-52.17 15,52.33 8.21,0.05 C 760.78,572 728.5,641.13 710,667.66 A 265.62,265.62 0 0 0 769.3,500 C 769.3,413.58 725,351.11 725,351.11 Z"
     fill="none"
     stroke="#592d3d"
     stroke-miterlimit="10"
     stroke-width="12px"
     id="path155" />
  <path
     d="m 584.15,228 -6.47,-1.74 c -25.21,-7 -50.93,-7.55 -75.13,-7.55 -30.59,0 -57.07,3.49 -80.91,10.64 l -4.26,1.27 -0.49,0.15 a 299.89,299.89 0 0 0 -93.42,52 c -3,2.46 -6,5 -8.84,7.55 -29.63,24.82 -52.93,56.11 -69.24,93 -1.56,3.49 -3,7.05 -4.42,10.57 -4.18,10.69 -21.29,59.77 -23.75,70.65 l 72.53,1 c 7.73,-0.29 20.24,-0.51 36.19,-0.67 l 15.5,-50.61 17.44,50.38 c 27.4,-0.13 59.88,-0.15 93.88,-0.12 L 465.08,412.16 479,464.6 c 74.37,0.14 151.44,0.52 195.28,0.77 l 13.2,-52.17 15,52.33 8.21,0.05 L 783.8,500 C 783.8,413.81 742.5,351 737.32,343.4 706,288 651.63,247 584.15,228 Z m 166.16,319.25 c -3.17,-25.92 -11.17,-55.26 -26.51,-87.84 l -3.89,-8.27 h -6.49 L 686.64,357.51 663,450.81 c -40.43,-0.22 -107.06,-0.54 -172.86,-0.69 l -25.95,-97.57 -22.94,97.5 c -27.4,0 -51.55,0 -72.09,0.09 l -28.56,-82.61 -25.42,83 c -11.45,0.15 -20.16,0.34 -26,0.56 l -9.83,0.38 -3.29,9.26 C 261.72,501.22 257.92,545 264.76,591 248.86,551 242.3,499.61 259.11,433.37 l 0.09,-0.38 a 197.7,197.7 0 0 1 8.8,-28.52 c 1.2,-3.09 2.51,-6.22 3.91,-9.35 14.54,-32.86 35.24,-60.67 61.51,-82.63 l 0.33,-0.29 c 2.65,-2.35 5.39,-4.69 8.14,-6.95 a 270.41,270.41 0 0 1 84,-46.87 l 4.05,-1.2 c 21.12,-6.34 44.87,-9.43 72.6,-9.43 22.22,0 45.73,0.51 67.45,6.52 l 6.38,1.71 c 60.24,17 108.53,53.27 136,102.23 l 0.37,0.66 0.44,0.63 c 0.42,0.59 41.61,59.63 41.61,140.5 a 252.08,252.08 0 0 1 -4.48,47.25 z"
     fill="#d96e27"
     id="path157" />
  <path
     d="m 710,667.66 q -4.71,5.82 -9.71,11.37 c -2.5,2.77 2.58,-1.12 9.71,-11.37 z M 307.17,681.6 c 4.37,4.7 -57.93,-101.85 -17.42,-216 7.73,-0.29 20.24,-0.51 36.19,-0.67 l 15.5,-50.61 17.44,50.38 c 27.4,-0.13 59.88,-0.15 93.88,-0.12 L 465.08,412.22 479,464.6 c 74.37,0.14 151.44,0.52 195.28,0.77 l 13.2,-52.17 15,52.33 8.21,0.05 C 760.78,572 728.5,641.13 710,667.66"
     fill="none"
     stroke="#592d3d"
     stroke-miterlimit="10"
     stroke-width="12px"
     id="path159" />
  <path
     d="m 284.48,462.85 c 0.18,-0.75 0.33,-1.32 0.53,-1.94 0.2,-0.62 0.4,-1.2 0.62,-1.78 0.46,-1.17 1,-2.31 1.51,-3.42 a 48.48,48.48 0 0 1 3.85,-6.42 37.51,37.51 0 0 1 4.88,-5.75 17,17 0 0 1 7,-4 31,31 0 0 1 -0.87,7.68 c -0.28,1.14 -0.59,2.25 -0.93,3.32 l -1,3.25 q -1,3.23 -2,6.39 c -0.33,1.06 -0.68,2.09 -1,3.13 -0.17,0.51 -0.37,1 -0.56,1.53 -0.19,0.53 -0.39,1 -0.56,1.4 z"
     fill="#592d3d"
     id="path161" />
  <path
     d="m 710.68,459.58 a 35,35 0 0 1 6.23,0.06 60.73,60.73 0 0 1 6.24,0.86 c 1,0.2 2.08,0.4 3.12,0.64 a 25.74,25.74 0 0 1 3.11,0.86 18.53,18.53 0 0 1 6.24,3.58 18.74,18.74 0 0 1 -6.24,3.59 25.68,25.68 0 0 1 -3.11,0.85 c -1,0.25 -2.08,0.45 -3.12,0.65 q -3.12,0.58 -6.24,0.86 a 35,35 0 0 1 -6.23,0.05 z"
     fill="#592d3d"
     id="path163" />
  <path
     d="m 444.84,452.07 a 134.88,134.88 0 0 1 1.49,-14.25 c 0.72,-4.7 1.6,-9.37 2.61,-14 1.01,-4.63 2.15,-9.25 3.44,-13.83 a 132.09,132.09 0 0 1 4.62,-13.59 131.77,131.77 0 0 1 -1.5,14.25 q -1.08,7.05 -2.61,14 -1.53,6.95 -3.44,13.83 a 137,137 0 0 1 -4.61,13.59 z"
     fill="#ffffff"
     id="path165" />
  <path
     d="m 668,452.07 a 134.88,134.88 0 0 1 1.49,-14.25 q 1.09,-7.05 2.61,-14 1.52,-6.95 3.39,-13.82 a 132.09,132.09 0 0 1 4.57,-13.58 131.76,131.76 0 0 1 -1.49,14.25 q -1.1,7.05 -2.61,14 c -1,4.64 -2.16,9.25 -3.45,13.83 A 134.48,134.48 0 0 1 668,452.07 Z"
     fill="#ffffff"
     id="path167" />
  <path
     d="m 237.55,468.26 a 143,143 0 0 1 11.42,-38"
     fill="#d96e27"
     id="path169" />
  <path
     d="m 231.6,467.51 c 0.09,-1 0.18,-1.85 0.32,-2.73 0.14,-0.88 0.29,-1.72 0.46,-2.58 0.35,-1.7 0.75,-3.38 1.23,-5 a 78.48,78.48 0 0 1 3.47,-9.75 66.09,66.09 0 0 1 4.7,-9.22 29.18,29.18 0 0 1 7.19,-7.91 50.46,50.46 0 0 1 -0.48,10.43 c -0.25,1.63 -0.51,3.25 -0.83,4.84 -0.32,1.59 -0.58,3.19 -0.83,4.78 l -1.63,9.49 -0.83,4.68 c -0.12,0.78 -0.28,1.56 -0.42,2.32 -0.14,0.76 -0.3,1.57 -0.44,2.19 z"
     fill="#592d3d"
     id="path171" />
  <path
     d="m 769.33,496 c 0,0 -0.46,-20.78 -8.37,-47.63"
     fill="#d96e27"
     id="path173" />
  <path
     d="m 763.33,496.12 -0.24,-2.76 c -0.08,-1 -0.16,-1.93 -0.22,-2.89 l -0.45,-5.84 -0.91,-11.8 c -0.3,-3.95 -0.71,-7.91 -1,-11.93 -0.08,-2 -0.16,-4.06 -0.1,-6.14 a 47.58,47.58 0 0 1 0.5,-6.4 42.78,42.78 0 0 1 6.58,10.89 62.13,62.13 0 0 1 2.17,5.84 c 0.67,2 1.24,4 1.81,6 a 111.89,111.89 0 0 1 2.69,12.17 c 0.33,2.05 0.63,4.12 0.81,6.21 q 0.16,1.56 0.24,3.15 c 0.06,1.07 0.08,2.07 0.07,3.28 z"
     fill="#592d3d"
     id="path175" />
  <path
     d="m 506.7,235.5 a 369.62,369.62 0 0 0 -42.48,4.93 c -3.48,0.68 -7,1.42 -10.44,2.06 -3.44,0.64 -6.9,1.61 -10.35,2.41 l -10.26,2.72 c -3.4,1 -6.77,2.08 -10.15,3.12 a 314.87,314.87 0 0 0 -39.44,15.73 348.17,348.17 0 0 0 -37.24,21 183.41,183.41 0 0 1 35.08,-25.14 219.23,219.23 0 0 1 39.76,-17.33 c 3.48,-1 6.94,-2.09 10.42,-3.05 3.48,-0.96 7,-1.82 10.55,-2.6 3.55,-0.78 7.1,-1.4 10.65,-2 3.55,-0.6 7.16,-1.07 10.74,-1.52 a 190,190 0 0 1 43.16,-0.33 z"
     fill="#ffffff"
     id="path177" />
  <path
     d="m 600.89,460.57 a 318.14,318.14 0 0 1 33.51,-6.65 l -2.66,0.35 c 13.18,-1.74 26.54,-2.25 39.75,-0.48 l -2.66,-0.36 c 3.27,0.46 6.54,1 9.82,1.42 l -2.66,-0.36 a 221,221 0 0 1 29.48,6.11 c 5,1.39 11.1,-1.73 12.3,-7 a 10.19,10.19 0 0 0 -7,-12.3 239.21,239.21 0 0 0 -34.59,-6.78 l 2.66,0.36 a 143,143 0 0 0 -33.44,-1.95 235.08,235.08 0 0 0 -33.09,4.55 c -5.62,1.13 -11.2,2.43 -16.76,3.8 -5.08,1.25 -8.62,7.26 -7,12.3 a 10.19,10.19 0 0 0 12.3,7 z"
     fill="#592d3d"
     id="path179" />
  <path
     d="m 286.14,460.6 a 202.56,202.56 0 0 1 29.25,-6.19 l -2.66,0.36 a 195.53,195.53 0 0 1 51.38,0.08 l -2.66,-0.35 a 218.94,218.94 0 0 1 29.45,6.1 c 5,1.4 11.1,-1.73 12.3,-7 a 10.19,10.19 0 0 0 -7,-12.3 227.26,227.26 0 0 0 -44.2,-7.7 208.27,208.27 0 0 0 -71.22,7.71 10.39,10.39 0 0 0 -6,4.6 10.2,10.2 0 0 0 -1,7.7 c 1.65,5.11 6.91,8.54 12.3,7 z"
     fill="#592d3d"
     id="path181" />
  <circle
     cx="382.91"
     cy="594.65997"
     r="33.84"
     fill="#ffffff"
     opacity="0.2"
     id="circle183" />
  <path
     d="m 375.87,631 43.31,-41.74 a 147.47,147.47 0 0 0 -7.57,-12.9 l -45.87,44.21 c 1.9,1.33 7.98,9.51 10.13,10.43 z"
     fill="#ffffff"
     opacity="0.4"
     id="path185" />
  <circle
     cx="382.91"
     cy="594.65997"
     r="33.84"
     fill="none"
     stroke="#592d3d"
     stroke-miterlimit="10"
     stroke-width="12px"
     id="circle187" />
  <path
     d="m 378,580.47 c 1.22,3.83 -3.5,6.78 -7,7.37 -3.54,0 -5.9,-2.36 -7.08,-5.31 -0.59,-2.95 0,-5.9 2.36,-7.67 2.95,-1.18 7.08,-2.36 9.7,0.67 a 6.85,6.85 0 0 1 2.02,4.94 z"
     fill="#ffffff"
     id="path189" />
  <path
     d="m 384.32,578.21 a 2.29,2.29 0 0 1 -4.49,0.19 c 0,-1.77 0.59,-2.36 2.27,-2.42 a 2.22,2.22 0 0 1 2.22,2.22 z"
     fill="#ffffff"
     id="path191" />
  <circle
     cx="615.20001"
     cy="594.65997"
     r="33.84"
     fill="#ffffff"
     opacity="0.2"
     id="circle193" />
  <path
     d="m 610.12,628.11 38.54,-38.54 c -0.21,-1.37 -5.91,-8.1 -6.29,-9.44 l -41.72,41.74 c 1.35,0.37 8.1,6.04 9.47,6.24 z"
     fill="#ffffff"
     opacity="0.4"
     id="path195" />
  <circle
     cx="615.20001"
     cy="594.65997"
     r="33.84"
     fill="none"
     stroke="#592d3d"
     stroke-miterlimit="10"
     stroke-width="12px"
     id="circle197" />
  <path
     d="m 607.36,579.91 c 1,3.25 -3,5.75 -6,6.25 -3,0 -5,-2 -6,-4.5 -0.5,-2.5 0,-5 2,-6.5 2.5,-1 6,-2 8.23,0.57 a 5.85,5.85 0 0 1 1.77,4.18 z"
     fill="#ffffff"
     id="path199" />
  <path
     d="m 612.7,578 a 1.94,1.94 0 0 1 -3.8,0.16 c 0,-1.5 0.5,-2 1.92,-2 a 1.88,1.88 0 0 1 1.88,1.84 z"
     fill="#ffffff"
     id="path201" />
  <path
     d="m 416.74,594.66 q 83.68,-30 164.63,0"
     fill="none"
     stroke="#592d3d"
     stroke-miterlimit="10"
     stroke-width="12px"
     id="path203" />
  <path
     d="M 615.2,634.5 A 39.9,39.9 0 0 1 575.6,599 c -50,-17.65 -101.46,-17.64 -153.1,0 a 39.81,39.81 0 0 1 -50.92,33.84 38,38 0 0 0 54.51,-29.91 c 49.22,-16.86 98.28,-16.88 145.93,0 a 38,38 0 0 0 54.51,30 40,40 0 0 1 -11.33,1.57 z"
     opacity="0.15"
     id="path205" />
</svg>
