<?xml version="1.0" encoding="UTF-8" standalone="no"?>
<!-- Created with Inkscape (http://www.inkscape.org/) -->

<svg
   width="11.492794mm"
   height="11.209509mm"
   viewBox="0 0 11.492794 11.209509"
   version="1.1"
   id="svg1106"
   inkscape:version="1.1 (c68e22c387, 2021-05-23)"
   sodipodi:docname="github.svg"
   xmlns:inkscape="http://www.inkscape.org/namespaces/inkscape"
   xmlns:sodipodi="http://sodipodi.sourceforge.net/DTD/sodipodi-0.dtd"
   xmlns="http://www.w3.org/2000/svg"
   xmlns:svg="http://www.w3.org/2000/svg">
  <sodipodi:namedview
     id="namedview1108"
     pagecolor="#ffffff"
     bordercolor="#666666"
     borderopacity="1.0"
     inkscape:pageshadow="2"
     inkscape:pageopacity="0.0"
     inkscape:pagecheckerboard="0"
     inkscape:document-units="mm"
     showgrid="false"
     fit-margin-top="0"
     fit-margin-left="0"
     fit-margin-right="0"
     fit-margin-bottom="0"
     inkscape:zoom="10.732997"
     inkscape:cx="36.848982"
     inkscape:cy="26.739969"
     inkscape:window-width="1920"
     inkscape:window-height="1043"
     inkscape:window-x="1920"
     inkscape:window-y="0"
     inkscape:window-maximized="1"
     inkscape:current-layer="layer1" />
  <defs
     id="defs1103" />
  <g
     inkscape:label="Layer 1"
     inkscape:groupmode="layer"
     id="layer1"
     transform="translate(-64.066316,-122.97692)">
    <path
       style="fill:#191714;fill-opacity:1;fill-rule:evenodd;stroke:none;stroke-width:0.352778"
       d="m 69.812735,122.97692 c -3.173621,0 -5.746419,2.57279 -5.746419,5.74641 0,2.53835 1.646757,4.69222 3.930167,5.4529 0.286632,0.0524 0.392741,-0.1254 0.392741,-0.27699 0,-0.13642 -0.0055,-0.49747 -0.0083,-0.97702 -1.598525,0.34726 -1.936143,-0.77033 -1.936143,-0.77033 -0.260449,-0.66421 -0.638031,-0.8406 -0.638031,-0.8406 -0.522277,-0.35691 0.03996,-0.35002 0.03996,-0.35002 0.576019,0.0413 0.879186,0.59256 0.879186,0.59256 0.512632,0.87781 1.346344,0.62425 1.672939,0.47817 0.05237,-0.37207 0.201192,-0.62562 0.365181,-0.76894 -1.276064,-0.1447 -2.618274,-0.63803 -2.618274,-2.84014 0,-0.62701 0.224621,-1.13964 0.592557,-1.54202 -0.05926,-0.14608 -0.256314,-0.72898 0.05512,-1.52136 0,0 0.48369,-0.15434 1.58061,0.5898 0.458886,-0.12815 0.950845,-0.19154 1.43867,-0.19292 0.487828,10e-4 0.979787,0.0648 1.438674,0.19292 1.096916,-0.74414 1.579231,-0.5898 1.579231,-0.5898 0.312815,0.79238 0.115757,1.37528 0.0565,1.52136 0.369313,0.40238 0.591178,0.91501 0.591178,1.54202 0,2.20762 -1.343586,2.69269 -2.623784,2.83601 0.206706,0.17638 0.389985,0.52778 0.389985,1.06384 0,0.76757 -0.0069,1.38769 -0.0069,1.57647 0,0.15297 0.103353,0.33211 0.395495,0.27699 2.280652,-0.76205 3.926032,-2.91455 3.926032,-5.4529 0,-3.17362 -2.572797,-5.74641 -5.746421,-5.74641"
       id="path11" />
  </g>
</svg>
