<?xml version="1.0" encoding="UTF-8" standalone="no"?>
<svg
   id="Layer_1"
   viewBox="0 0 665.18127 436.35999"
   version="1.1"
   sodipodi:docname="ko-fi-icon.svg"
   width="665.18127"
   height="436.35999"
   inkscape:version="1.3.2 (091e20ef0f, 2023-11-25)"
   xmlns:inkscape="http://www.inkscape.org/namespaces/inkscape"
   xmlns:sodipodi="http://sodipodi.sourceforge.net/DTD/sodipodi-0.dtd"
   xmlns="http://www.w3.org/2000/svg"
   xmlns:svg="http://www.w3.org/2000/svg">
  <sodipodi:namedview
     id="namedview6"
     pagecolor="#ffffff"
     bordercolor="#666666"
     borderopacity="1.0"
     inkscape:showpageshadow="2"
     inkscape:pageopacity="0.0"
     inkscape:pagecheckerboard="0"
     inkscape:deskcolor="#d1d1d1"
     inkscape:zoom="0.57487781"
     inkscape:cx="154.81551"
     inkscape:cy="536.63577"
     inkscape:window-width="1852"
     inkscape:window-height="1052"
     inkscape:window-x="0"
     inkscape:window-y="0"
     inkscape:window-maximized="1"
     inkscape:current-layer="Layer_1" />
  <defs
     id="defs2">
    <style
       id="style1">.cls-1{fill:url(#linear-gradient);}.cls-2{fill:#fff;}.cls-3{fill:#ff5e5b;}</style>
    <linearGradient
       id="linear-gradient"
       x1="336.01001"
       y1="4124.6401"
       x2="421.72"
       y2="3861.6101"
       gradientTransform="matrix(1,0,0,-1,4.1,4362.59)"
       gradientUnits="userSpaceOnUse">
      <stop
         offset="0"
         stop-color="#ff4ea3"
         id="stop1" />
      <stop
         offset="1"
         stop-color="#ff5e5b"
         id="stop2" />
    </linearGradient>
  </defs>
  <g
     id="Layer_1-2"
     transform="translate(-167.42249,-281.82)">
    <g
       id="Layer_1-3">
      <g
         id="g5">
        <path
           class="cls-2"
           d="m 683.95,523.77 c -23.89,2.65 -43.75,1.28 -43.75,1.28 V 375.41 h 30.49 c 19.86,0 38.44,7.97 51.62,23.9 9.24,10.62 15.93,25.17 15.92,46.41 0,48.96 -25.17,68.82 -54.28,78.06 z m 128.51,-104.6 c -9.24,-46.41 -33.13,-75.51 -59.58,-92.72 -26.45,-18.58 -58.3,-27.83 -90.06,-27.83 l -455.8,-0.02 c -15.93,0 -22.52,15.93 -22.52,23.89 v 5.31 c 0,0 -1.29,201.35 1.26,309.99 3.93,63.61 67.54,63.61 67.54,63.61 0,0 207.94,0.01 308.62,-1.26 5.31,0 9.24,0 14.55,-1.28 56.93,-14.55 62.24,-67.54 62.24,-96.74 114.05,5.12 194.87,-75.69 173.74,-182.96 z"
           id="path2" />
        <g
           id="g4">
          <path
             d="m 828.94,416.04 v -0.02 l -0.02,-0.1 -0.02,-0.12 C 817.58,359.06 786.44,328.33 762.29,312.55 734,292.75 698.68,281.84 662.83,281.84 l -455.8,-0.02 c -25.63,0 -39.29,23.62 -39.29,40.67 v 5.2 c -0.01,2.02 -1.26,202.77 1.27,310.49 0,0.21 0.01,0.43 0.03,0.64 2.53,40.94 25.68,60.51 44.67,69.72 19.61,9.51 38.81,9.63 39.62,9.64 h 0.08 c 8.52,0 209.91,-0.01 308.62,-1.26 5.73,0 11.15,0 18.37,-1.74 l 0.25,-0.06 c 30.03,-7.68 51.43,-25.25 63.6,-52.23 5.75,-12.75 9.23,-27.12 10.59,-43.84 27.55,-0.7 53.46,-6.14 77.07,-16.2 24.87,-10.6 45.93,-25.78 62.58,-45.13 32.7,-38 44.94,-88.31 34.46,-141.68 z M 202.53,637.06 c -2.47,-105.83 -1.3,-300.97 -1.25,-309.27 v -5.21 c 0.07,-0.47 1.26,-7.22 5.74,-7.22 l 455.8,0.02 c 29.12,0 57.68,8.8 80.41,24.78 0.17,0.12 0.33,0.23 0.5,0.34 27.41,17.83 45,45.39 52.27,81.91 8.49,43.08 -1.09,83.36 -26.95,113.41 -29.14,33.87 -76.36,51.93 -129.57,49.53 -4.55,-0.21 -9.05,1.48 -12.35,4.63 -3.29,3.15 -5.18,7.57 -5.18,12.12 0,45.59 -16.21,71.91 -49.46,80.45 -3.3,0.79 -5.69,0.79 -10.44,0.79 h -0.33 c -87.58,1.11 -256.78,1.24 -306.56,1.26 h -1.81 c -0.12,0 -12.58,-0.24 -25.02,-6.27 -15.82,-7.68 -24.51,-21.57 -25.8,-41.3 z"
             id="path3" />
          <path
             d="m 639.03,541.78 c 0.59,0.04 6.03,0.4 14.53,0.4 11,0 21.84,-0.59 32.23,-1.74 1.09,-0.12 2.18,-0.35 3.23,-0.68 43.77,-13.9 65.97,-45.54 65.97,-94.05 0,-22.75 -6.71,-42.03 -19.88,-57.22 -15.98,-19.25 -38.87,-29.85 -64.44,-29.85 h -30.48 c -9.25,0 -16.77,7.52 -16.78,16.77 v 149.64 c 0,8.78 6.85,16.13 15.61,16.73 z M 656.97,508.6 V 392.18 h 13.71 c 15.45,0 29.19,6.33 38.7,17.82 l 0.26,0.31 c 7.94,9.13 11.8,20.7 11.8,35.39 0,33.49 -12.28,51.93 -41.03,61.57 -7.49,0.78 -15.36,1.22 -23.44,1.32 z"
             id="path4" />
        </g>
      </g>
      <path
         class="cls-3"
         d="m 408.36,616.47 c 5.31,2.65 7.96,0 7.96,0 0,0 72.86,-66.26 105.99,-104.6 29.1,-34.41 30.48,-91.43 -18.58,-112.57 -50.34,-21.24 -91.44,25.16 -91.44,25.16 -35.79,-39.72 -90.06,-37.07 -115.23,-10.62 -25.17,26.45 -15.93,71.57 2.65,98.02 17.2,23.89 94.08,92.72 105.98,103.34 0,-1.38 1.38,0 2.65,1.28 z"
         id="path5" />
      <path
         class="cls-1"
         d="m 410.82,618.43 c 2.95,0.59 5.51,-1.97 5.51,-1.97 0,0 72.86,-66.26 105.99,-104.6 29.1,-34.41 30.48,-91.43 -18.58,-112.57 -50.34,-21.24 -91.44,25.16 -91.44,25.16 -35.79,-39.72 -90.06,-37.07 -115.23,-10.62 -25.17,26.45 -15.93,71.57 2.65,98.02 16.22,22.52 97.53,95.67 107.65,104.81 0.98,0.88 2.16,1.57 3.44,1.77 z"
         id="path6"
         style="fill:url(#linear-gradient)" />
    </g>
  </g>
</svg>
