<svg id="Reddit_logo" data-name="Reddit logo" xmlns="http://www.w3.org/2000/svg" viewBox="0 0 100 100"><defs><style>.cls-1{fill:#ff4500;}.cls-2{fill:#fff;}</style></defs><title>Reddit logo</title><circle class="cls-1" cx="50" cy="50" r="49"/><path class="cls-2" d="M52.69,18.79a1.62,1.62,0,0,1,1.93-1.22L67.86,20.5a5.24,5.24,0,1,1-.55,2.93l-12-2.66-4.07,17.5A37.77,37.77,0,0,1,73,45.47a7.71,7.71,0,0,1,11.83.93,7.53,7.53,0,0,1,.41.73,8,8,0,0,1-3.6,10.7,18.67,18.67,0,0,1-8,17.5A39.59,39.59,0,0,1,50,82.46a39.57,39.57,0,0,1-23.64-7.13,18.67,18.67,0,0,1-8-17.5,7.53,7.53,0,0,1-.73-.41,8,8,0,0,1-2.46-11,8.27,8.27,0,0,1,.9-1.06A7.74,7.74,0,0,1,27,45.47a37.78,37.78,0,0,1,21.19-7.19Zm4.39,37.4a5.3,5.3,0,1,0,5.3-5.3,5.29,5.29,0,0,0-5.3,5.3ZM63.39,70.8a1.22,1.22,0,0,0-1.3-2,20.66,20.66,0,0,1-24.18,0,1.22,1.22,0,0,0-1.3,2A22.66,22.66,0,0,0,63.39,70.8ZM32.32,56.19a5.3,5.3,0,1,0,5.3-5.3,5.29,5.29,0,0,0-5.3,5.3Z"/></svg>